# Blender v2.63 (sub 0) OBJ File: 'map20130120.blend'
# www.blender.org
mtllib tree_mm.mtl
o tree.007_Cylinder.011
v -0.024187 0.000000 -0.009628
v -0.003755 0.000000 -0.025761
v 0.020432 0.000000 -0.016132
v 0.024187 0.000000 0.009628
v 0.003755 0.000000 0.025761
v -0.020432 0.000000 0.016132
v -0.020044 0.055505 -0.007979
v -0.003112 0.055505 -0.021348
v 0.016932 0.055505 -0.013369
v 0.020044 0.055505 0.007979
v 0.003112 0.055505 0.021348
v -0.016932 0.055505 0.013369
v -0.016554 0.204257 -0.033557
v -0.003626 0.204257 -0.043765
v 0.011679 0.204257 -0.037672
v 0.014055 0.204257 -0.021372
v 0.001126 0.204257 -0.011164
v -0.014179 0.204257 -0.017257
v -0.050333 0.317486 -0.015441
v -0.042968 0.317486 -0.021257
v -0.034248 0.317486 -0.017786
v -0.032895 0.317486 -0.008499
v -0.040260 0.317486 -0.002683
v -0.048980 0.317486 -0.006154
v -0.008420 0.253783 -0.028960
v -0.014150 0.267960 -0.026498
v 0.026690 0.280638 -0.085677
v 0.018763 0.292207 -0.079103
v 0.030003 0.352071 -0.132776
v 0.021104 0.359706 -0.122689
v -0.015951 0.108509 0.002456
v -0.015160 0.151253 -0.006344
v -0.062146 0.150262 0.034722
v -0.054642 0.168798 0.024174
v -0.098271 0.203641 0.044004
v -0.088489 0.220154 0.032057
v -0.134933 0.224919 0.073352
v -0.129776 0.245082 0.064521
v 0.015848 0.159701 -0.012580
v 0.014586 0.191069 -0.018770
v 0.058944 0.172575 -0.004359
v 0.050070 0.191186 -0.007035
v 0.089301 0.215674 -0.006195
v 0.076815 0.223865 -0.005308
v 0.107336 0.261650 0.001333
v 0.093810 0.267742 0.003263
v -0.003449 0.152993 -0.036039
v -0.003564 0.186462 -0.041083
v -0.041536 0.169517 -0.085044
v -0.037117 0.184767 -0.077998
v -0.051432 0.233368 -0.114475
v -0.045307 0.245265 -0.103399
v -0.071104 0.258156 -0.159031
v -0.066653 0.273362 -0.151909
v -0.018856 0.374592 -0.145110
v 0.017055 0.374592 -0.178089
v 0.071207 0.374592 -0.162091
v 0.073876 0.374592 -0.106435
v 0.036379 0.374592 -0.076882
v -0.006375 0.374592 -0.101079
v 0.017365 0.390456 -0.130312
v 0.025535 0.390456 -0.136703
v 0.036046 0.390456 -0.133069
v 0.037277 0.390456 -0.121838
v 0.029111 0.390456 -0.115451
v 0.019687 0.390456 -0.120261
v -0.035735 0.334383 -0.154121
v 0.006679 0.334383 -0.206119
v 0.084409 0.334383 -0.171124
v 0.093585 0.334383 -0.097279
v 0.045203 0.334383 -0.059144
v -0.023745 0.334383 -0.087362
v -0.003506 0.308494 -0.137058
v 0.019168 0.308494 -0.158852
v 0.051504 0.308494 -0.144689
v 0.056248 0.308494 -0.112143
v 0.032321 0.308494 -0.093265
v 0.001541 0.308494 -0.105680
v -0.087011 0.298884 0.099938
v -0.142664 0.298884 0.117459
v -0.193238 0.298884 0.072644
v -0.167890 0.298884 0.010969
v -0.112255 0.298884 -0.002035
v -0.078196 0.298884 0.045885
v -0.118758 0.317868 0.065522
v -0.130855 0.317868 0.068303
v -0.140404 0.317868 0.059030
v -0.136039 0.317868 0.046234
v -0.123948 0.317868 0.043455
v -0.116175 0.317868 0.053450
v -0.073289 0.250765 0.118269
v -0.145641 0.250765 0.153104
v -0.212129 0.250765 0.075735
v -0.184605 0.250765 -0.008954
v -0.112818 0.250765 -0.025736
v -0.052410 0.250765 0.039832
v -0.099561 0.219784 0.083423
v -0.135194 0.219784 0.095538
v -0.163053 0.219784 0.063781
v -0.151680 0.219784 0.026101
v -0.116170 0.219784 0.017782
v -0.089109 0.219784 0.046854
v 0.084938 0.300683 -0.052355
v 0.140655 0.300683 -0.024648
v 0.146357 0.300683 0.047191
v 0.081261 0.300683 0.075823
v 0.028901 0.300683 0.044658
v 0.038182 0.300683 -0.017350
v 0.083870 0.320929 -0.002431
v 0.095221 0.320929 0.004381
v 0.095697 0.320929 0.018567
v 0.082878 0.320929 0.025169
v 0.071534 0.320929 0.018360
v 0.072956 0.320929 0.004932
v 0.087956 0.249365 -0.076589
v 0.169309 0.249365 -0.049830
v 0.163156 0.249365 0.058791
v 0.079365 0.249365 0.103493
v 0.011801 0.249365 0.063283
v 0.013895 0.249365 -0.031774
v 0.082363 0.216324 -0.030384
v 0.118700 0.216324 -0.013334
v 0.116611 0.216324 0.031672
v 0.080001 0.216324 0.052207
v 0.046567 0.216324 0.032331
v 0.047283 0.216324 -0.010022
v -0.094226 0.283949 -0.082548
v -0.118116 0.283949 -0.130513
v -0.084733 0.283949 -0.182826
v -0.025147 0.283949 -0.168696
v -0.005357 0.283949 -0.120099
v -0.043929 0.283949 -0.082320
v -0.067570 0.301383 -0.116291
v -0.071831 0.301383 -0.126864
v -0.064792 0.301383 -0.136858
v -0.052558 0.301383 -0.134737
v -0.048300 0.301383 -0.124169
v -0.056249 0.301383 -0.115683
v -0.108882 0.239757 -0.067468
v -0.150876 0.239757 -0.128091
v -0.090251 0.239757 -0.199517
v -0.009477 0.239757 -0.186720
v 0.016061 0.239757 -0.124016
v -0.034734 0.239757 -0.059800
v -0.081049 0.211305 -0.096305
v -0.097159 0.211305 -0.126886
v -0.072356 0.211305 -0.156720
v -0.036543 0.211305 -0.151818
v -0.023894 0.211305 -0.120803
v -0.046377 0.211305 -0.092080
v -0.038139 0.410077 0.068540
v -0.101657 0.405156 0.046485
v -0.117562 0.402199 -0.029899
v -0.051665 0.405781 -0.069664
v 0.008725 0.410588 -0.043430
v 0.007224 0.412136 0.024466
v -0.045308 0.430255 0.014229
v -0.058407 0.429211 0.008482
v -0.060851 0.428673 -0.006692
v -0.048006 0.429344 -0.015558
v -0.034914 0.430388 -0.009813
v -0.034609 0.430765 0.004809
v -0.034244 0.355274 0.096340
v -0.125122 0.348575 0.078851
v -0.133328 0.345148 -0.038686
v -0.049575 0.349479 -0.098302
v 0.028350 0.355682 -0.064455
v 0.039060 0.358913 0.037950
v -0.032080 0.318324 0.046800
v -0.073365 0.315150 0.033511
v -0.077259 0.313698 -0.015125
v -0.040804 0.315555 -0.042251
v -0.002245 0.318624 -0.025525
v 0.002759 0.320078 0.020071
vn -0.000000 -1.000000 -0.000000
vn -0.362806 0.194350 0.911373
vn 0.618190 0.069412 0.782958
vn 0.987156 0.069412 -0.143890
vn -0.987157 0.069412 0.143886
vn 0.368966 0.069412 -0.926847
vn -0.368966 0.069413 0.926847
vn -0.618193 0.069412 -0.782955
vn 0.910149 0.392465 -0.132663
vn -0.615244 -0.119554 -0.779218
vn 0.609903 0.176974 0.772463
vn 0.989479 0.011380 -0.144228
vn -0.988405 0.047956 0.144067
vn 0.366349 -0.137418 -0.920274
vn 0.000000 1.000000 0.000000
vn -0.942936 -0.303288 0.137437
vn 0.352953 0.298878 -0.886621
vn -0.362339 -0.200610 0.910201
vn -0.618605 -0.059196 -0.783469
vn 0.611149 0.165407 0.774040
vn 0.783107 0.209918 0.585387
vn 0.819720 0.289302 0.494331
vn -0.649086 -0.147743 -0.746230
vn -0.553516 -0.239041 -0.797797
vn -0.665757 -0.143619 -0.732216
vn 0.262538 -0.116648 -0.957845
vn 0.042039 -0.033131 -0.998567
vn -0.008011 0.179395 -0.983745
vn -0.763909 0.040995 0.644021
vn -0.899332 0.060170 0.433106
vn -0.899983 0.061447 0.431572
vn 0.922244 0.377291 -0.084359
vn 0.400548 0.915978 -0.023354
vn -0.443748 0.887883 0.121460
vn 0.113027 0.921209 -0.372288
vn -0.228305 0.882741 0.410664
vn -0.269623 0.914426 -0.301876
vn 0.256713 0.909790 0.326161
vn -0.897540 0.393852 0.198251
vn 0.329786 0.404676 -0.852924
vn -0.394526 0.370776 0.840758
vn -0.641183 0.489520 -0.590978
vn 0.557566 0.434390 0.707408
vn 0.230392 -0.825119 -0.515847
vn -0.263057 -0.716903 0.645640
vn -0.421909 -0.826744 -0.372138
vn 0.369697 -0.802170 0.468880
vn 0.583435 -0.808564 -0.076338
vn -0.663231 -0.739505 0.115144
vn -0.871008 0.377292 -0.314636
vn -0.372663 0.915978 -0.148684
vn 0.453385 0.887882 0.078150
vn -0.260217 0.921209 0.289243
vn 0.380891 0.882741 -0.275120
vn 0.116191 0.914425 0.387719
vn -0.094200 0.909789 -0.404239
vn 0.896925 0.393852 0.201014
vn -0.660318 0.404676 0.632627
vn 0.713793 0.370776 -0.594159
vn 0.330115 0.489520 0.807090
vn -0.205020 0.434390 -0.877081
vn -0.427378 -0.825119 0.369495
vn 0.511995 -0.716903 -0.473193
vn 0.224318 -0.826744 0.515922
vn -0.136012 -0.802170 -0.581399
vn -0.560761 -0.808564 -0.178243
vn 0.649483 -0.739505 0.176932
vn 0.409202 0.377292 0.830786
vn 0.165321 0.915978 0.365586
vn -0.272393 0.887882 -0.370766
vn 0.388069 0.921209 -0.027870
vn -0.465201 0.882741 -0.066004
vn 0.185226 0.914425 -0.359886
vn -0.212525 0.909789 0.356534
vn -0.506679 0.393852 -0.766914
vn 0.914457 0.404676 0.002284
vn -0.926296 0.370775 -0.067085
vn 0.322002 0.489519 -0.810361
vn -0.460661 0.434390 0.774013
vn 0.564147 -0.825119 0.030265
vn -0.697027 -0.716903 -0.014256
vn 0.196258 -0.826744 -0.527235
vn -0.305284 -0.802170 0.513152
vn 0.280316 -0.808565 0.517345
vn -0.345136 -0.739505 -0.577939
vn 0.174481 0.377292 -0.909510
vn 0.088545 0.915978 -0.391335
vn -0.006250 0.887883 0.460028
vn -0.326394 0.921209 -0.211756
vn 0.331326 0.882741 0.333153
vn -0.364764 0.914426 0.175422
vn 0.384521 0.909790 -0.156288
vn -0.058204 0.393852 0.917329
vn -0.728151 0.404676 -0.553204
vn 0.698523 0.370776 0.612038
vn -0.745499 0.489520 0.452328
vn 0.834201 0.434390 -0.339725
vn -0.431813 -0.825119 -0.364303
vn 0.547472 -0.716903 0.431653
vn -0.474471 -0.826744 0.302277
vn 0.552958 -0.802170 -0.225303
vn 0.088310 -0.808564 -0.581743
vn -0.073134 -0.739505 0.669167
vn -0.535453 0.322341 -0.780632
vn -0.068847 0.997332 -0.024269
vn -0.068848 0.997332 -0.024270
vn -0.068851 0.997332 -0.024270
vn -0.068846 0.997332 -0.024268
vn -0.272663 0.890759 -0.363599
vn 0.255086 0.915442 0.311284
vn -0.443976 0.894359 0.054838
vn 0.407919 0.912888 -0.015390
vn -0.200999 0.911715 0.358295
vn 0.102842 0.909524 -0.402729
vn 0.570796 0.451005 0.686138
vn -0.933155 0.343888 0.104702
vn 0.899635 0.432393 -0.060782
vn -0.250443 0.493804 0.832728
vn 0.328631 0.437876 -0.836819
vn -0.505316 -0.860699 0.062065
vn 0.740975 -0.669068 -0.057486
vn -0.070989 -0.820038 0.567890
vn 0.292809 -0.796958 -0.528319
vn -0.286828 -0.841661 -0.457533
vn 0.465182 -0.696062 0.546903
usemtl wood.dark
s off
f 1//1 2//1 6//1
f 2//1 5//1 6//1
f 2//1 3//1 5//1
f 3//1 4//1 5//1
f 11//2 17//2 18//2
f 11//2 18//2 12//2
f 4//3 10//3 11//3
f 4//3 11//3 5//3
f 3//4 9//4 10//4
f 3//4 10//4 4//4
f 7//5 1//5 6//5
f 7//5 6//5 12//5
f 2//6 8//6 9//6
f 2//6 9//6 3//6
f 5//7 11//7 12//7
f 5//7 12//7 6//7
f 1//8 7//8 8//8
f 1//8 8//8 2//8
f 15//9 21//9 22//9
f 15//9 22//9 16//9
f 7//10 13//10 14//10
f 7//10 14//10 8//10
f 10//11 16//11 17//11
f 10//11 17//11 11//11
f 9//12 15//12 16//12
f 9//12 16//12 10//12
f 12//13 18//13 13//13
f 12//13 13//13 7//13
f 8//14 14//14 15//14
f 8//14 15//14 9//14
f 19//15 24//15 20//15
f 24//15 23//15 20//15
f 23//15 21//15 20//15
f 23//15 22//15 21//15
f 18//16 24//16 19//16
f 18//16 19//16 13//16
f 14//17 20//17 21//17
f 14//17 21//17 15//17
f 17//18 23//18 24//18
f 17//18 24//18 18//18
f 13//19 19//19 20//19
f 13//19 20//19 14//19
f 16//20 22//20 23//20
f 16//20 23//20 17//20
f 26//21 25//21 27//21
f 26//21 27//21 28//21
f 28//22 27//22 29//22
f 28//22 29//22 30//22
f 31//23 33//23 34//23
f 31//23 34//23 32//23
f 33//24 35//24 36//24
f 33//24 36//24 34//24
f 35//25 37//25 38//25
f 35//25 38//25 36//25
f 40//26 42//26 41//26
f 40//26 41//26 39//26
f 42//27 44//27 43//27
f 42//27 43//27 41//27
f 44//28 46//28 45//28
f 44//28 45//28 43//28
f 47//29 48//29 50//29
f 47//29 50//29 49//29
f 49//30 50//30 52//30
f 49//30 52//30 51//30
f 51//31 52//31 54//31
f 51//31 54//31 53//31
usemtl leaves
f 58//32 70//32 69//32
f 58//32 69//32 57//32
f 61//15 66//15 62//15
f 66//15 63//15 62//15
f 66//15 65//15 63//15
f 65//15 64//15 63//15
f 57//33 63//33 64//33
f 57//33 64//33 58//33
f 60//34 66//34 61//34
f 60//34 61//34 55//34
f 56//35 62//35 63//35
f 56//35 63//35 57//35
f 59//36 65//36 66//36
f 59//36 66//36 60//36
f 55//37 61//37 62//37
f 55//37 62//37 56//37
f 58//38 64//38 65//38
f 58//38 65//38 59//38
f 55//39 67//39 72//39
f 55//39 72//39 60//39
f 57//40 69//40 68//40
f 57//40 68//40 56//40
f 60//41 72//41 71//41
f 60//41 71//41 59//41
f 56//42 68//42 67//42
f 56//42 67//42 55//42
f 59//43 71//43 70//43
f 59//43 70//43 58//43
f 69//44 75//44 74//44
f 69//44 74//44 68//44
f 72//45 78//45 77//45
f 72//45 77//45 71//45
f 68//46 74//46 73//46
f 68//46 73//46 67//46
f 71//47 77//47 76//47
f 71//47 76//47 70//47
f 70//48 76//48 75//48
f 70//48 75//48 69//48
f 67//49 73//49 78//49
f 67//49 78//49 72//49
f 82//50 94//50 93//50
f 82//50 93//50 81//50
f 89//15 88//15 87//15
f 89//15 87//15 86//15
f 90//15 89//15 86//15
f 85//15 90//15 86//15
f 81//51 87//51 88//51
f 81//51 88//51 82//51
f 84//52 90//52 85//52
f 84//52 85//52 79//52
f 80//53 86//53 87//53
f 80//53 87//53 81//53
f 83//54 89//54 90//54
f 83//54 90//54 84//54
f 79//55 85//55 86//55
f 79//55 86//55 80//55
f 82//56 88//56 89//56
f 82//56 89//56 83//56
f 79//57 91//57 96//57
f 79//57 96//57 84//57
f 81//58 93//58 92//58
f 81//58 92//58 80//58
f 84//59 96//59 95//59
f 84//59 95//59 83//59
f 80//60 92//60 91//60
f 80//60 91//60 79//60
f 83//61 95//61 94//61
f 83//61 94//61 82//61
f 93//62 99//62 98//62
f 93//62 98//62 92//62
f 96//63 102//63 101//63
f 96//63 101//63 95//63
f 92//64 98//64 97//64
f 92//64 97//64 91//64
f 95//65 101//65 100//65
f 95//65 100//65 94//65
f 94//66 100//66 99//66
f 94//66 99//66 93//66
f 91//67 97//67 102//67
f 91//67 102//67 96//67
f 106//68 118//68 117//68
f 106//68 117//68 105//68
f 109//15 114//15 113//15
f 109//15 113//15 112//15
f 109//15 112//15 110//15
f 112//15 111//15 110//15
f 105//69 111//69 112//69
f 105//69 112//69 106//69
f 108//70 114//70 109//70
f 108//70 109//70 103//70
f 104//71 110//71 111//71
f 104//71 111//71 105//71
f 107//72 113//72 114//72
f 107//72 114//72 108//72
f 103//73 109//73 110//73
f 103//73 110//73 104//73
f 106//74 112//74 113//74
f 106//74 113//74 107//74
f 103//75 115//75 120//75
f 103//75 120//75 108//75
f 105//76 117//76 116//76
f 105//76 116//76 104//76
f 108//77 120//77 119//77
f 108//77 119//77 107//77
f 104//78 116//78 115//78
f 104//78 115//78 103//78
f 107//79 119//79 118//79
f 107//79 118//79 106//79
f 117//80 123//80 122//80
f 117//80 122//80 116//80
f 120//81 126//81 125//81
f 120//81 125//81 119//81
f 116//82 122//82 121//82
f 116//82 121//82 115//82
f 119//83 125//83 124//83
f 119//83 124//83 118//83
f 118//84 124//84 123//84
f 118//84 123//84 117//84
f 115//85 121//85 126//85
f 115//85 126//85 120//85
f 130//86 142//86 141//86
f 130//86 141//86 129//86
f 133//15 135//15 134//15
f 133//15 136//15 135//15
f 133//15 138//15 136//15
f 138//15 137//15 136//15
f 129//87 135//87 136//87
f 129//87 136//87 130//87
f 132//88 138//88 133//88
f 132//88 133//88 127//88
f 128//89 134//89 135//89
f 128//89 135//89 129//89
f 131//90 137//90 138//90
f 131//90 138//90 132//90
f 127//91 133//91 134//91
f 127//91 134//91 128//91
f 130//92 136//92 137//92
f 130//92 137//92 131//92
f 127//93 139//93 144//93
f 127//93 144//93 132//93
f 129//94 141//94 140//94
f 129//94 140//94 128//94
f 132//95 144//95 143//95
f 132//95 143//95 131//95
f 128//96 140//96 139//96
f 128//96 139//96 127//96
f 131//97 143//97 142//97
f 131//97 142//97 130//97
f 141//98 147//98 146//98
f 141//98 146//98 140//98
f 144//99 150//99 149//99
f 144//99 149//99 143//99
f 140//100 146//100 145//100
f 140//100 145//100 139//100
f 143//101 149//101 148//101
f 143//101 148//101 142//101
f 142//102 148//102 147//102
f 142//102 147//102 141//102
f 139//103 145//103 150//103
f 139//103 150//103 144//103
f 154//104 166//104 165//104
f 154//104 165//104 153//104
f 160//105 159//105 158//105
f 157//106 160//106 158//106
f 157//107 161//107 160//107
f 157//108 162//108 161//108
f 153//109 159//109 160//109
f 153//109 160//109 154//109
f 156//110 162//110 157//110
f 156//110 157//110 151//110
f 152//111 158//111 159//111
f 152//111 159//111 153//111
f 155//112 161//112 162//112
f 155//112 162//112 156//112
f 151//113 157//113 158//113
f 151//113 158//113 152//113
f 154//114 160//114 161//114
f 154//114 161//114 155//114
f 151//115 163//115 168//115
f 151//115 168//115 156//115
f 153//116 165//116 164//116
f 153//116 164//116 152//116
f 156//117 168//117 167//117
f 156//117 167//117 155//117
f 152//118 164//118 163//118
f 152//118 163//118 151//118
f 155//119 167//119 166//119
f 155//119 166//119 154//119
f 165//120 171//120 170//120
f 165//120 170//120 164//120
f 168//121 174//121 173//121
f 168//121 173//121 167//121
f 164//122 170//122 169//122
f 164//122 169//122 163//122
f 167//123 173//123 172//123
f 167//123 172//123 166//123
f 166//124 172//124 171//124
f 166//124 171//124 165//124
f 163//125 169//125 174//125
f 163//125 174//125 168//125
