# Blender v2.63 (sub 0) OBJ File: 'tree2.blend'
# www.blender.org
mtllib tree2.mtl
o tree_Plane.001
v 3.188367 7.806884 -0.274028
v 1.431294 7.806884 -0.274028
v 3.188367 7.806884 -2.031102
v 1.431294 7.806884 -2.031102
v 2.309831 7.806884 0.019210
v 2.309831 7.806884 -2.324340
v 1.138055 7.806884 -1.152565
v 3.481606 7.806884 -1.152565
v 2.309831 8.123623 -1.152565
v 3.500964 6.690800 0.038568
v 1.118697 6.690800 0.038568
v 3.500964 6.690800 -2.343699
v 1.118697 6.690800 -2.343699
v 2.309831 6.690800 0.436146
v 2.309831 6.690800 -2.741276
v 0.721120 6.690800 -1.152565
v 3.898541 6.690800 -1.152565
v 0.599147 6.585316 3.941862
v -1.376753 6.585316 3.941862
v 0.599147 6.585316 1.965962
v -1.376753 6.585316 1.965962
v -0.388803 6.585316 4.271621
v -0.388803 6.585316 1.636203
v -1.706511 6.585316 2.953912
v 0.928906 6.585316 2.953912
v -0.388803 7.179842 2.953912
v 0.802331 5.886081 4.145045
v -1.579936 5.886081 4.145045
v 0.802331 5.886081 1.762779
v -1.579936 5.886081 1.762779
v -0.388803 5.886081 4.542623
v -0.388803 5.886081 1.365201
v -1.977513 5.886081 2.953912
v 1.199908 5.886081 2.953912
v -0.532597 6.685452 -1.376916
v -1.616296 6.685452 -1.376916
v -0.532597 6.685452 -2.460615
v -1.616296 6.685452 -2.460615
v -1.074447 6.685452 -1.196057
v -1.074447 6.685452 -2.641474
v -1.797155 6.685452 -1.918766
v -0.351738 6.685452 -1.918766
v -1.074447 7.078140 -1.918766
v -0.339798 6.238383 -1.184118
v -1.809095 6.238383 -1.184118
v -0.339798 6.238383 -2.653414
v -1.809095 6.238383 -2.653414
v -1.074447 6.238383 -0.938906
v -1.074447 6.238383 -2.898625
v -2.054306 6.238383 -1.918766
v -0.094587 6.238383 -1.918766
v 2.846184 5.336508 -0.913294
v 1.768430 5.449843 -0.915516
v 2.836260 5.221003 -1.990775
v 1.758505 5.334337 -1.992997
v 2.308964 5.412453 -0.734584
v 2.295726 5.258393 -2.171707
v 1.583601 5.411005 -1.454628
v 3.021089 5.259841 -1.451663
v 2.322701 5.528586 -1.474040
v 2.995162 4.748003 -0.675500
v 1.533926 4.901665 -0.678513
v 2.981707 4.591399 -2.136365
v 1.520470 4.745060 -2.139378
v 2.266790 4.850970 -0.433202
v 2.248843 4.642094 -2.381675
v 1.283332 4.849007 -1.409448
v 3.232301 4.644056 -1.405429
v -1.384774 8.880959 0.551077
v -2.962596 8.880959 0.551077
v -1.384774 8.880959 -1.026744
v -2.962596 8.880959 -1.026744
v -2.173685 8.880959 0.814400
v -2.173685 8.880959 -1.290067
v -3.225919 8.880959 -0.237833
v -1.121451 8.880959 -0.237833
v -2.173685 9.165384 -0.237833
v -1.104068 8.258777 0.831784
v -3.243302 8.258777 0.831784
v -1.104068 8.258777 -1.307450
v -3.243302 8.258777 -1.307450
v -2.173685 8.258777 1.188801
v -2.173685 8.258777 -1.664468
v -3.600319 8.258777 -0.237833
v -0.747051 8.258777 -0.237833
v -0.592317 7.889883 1.557349
v -1.339675 7.889883 1.557349
v -0.592317 7.889883 0.809991
v -1.339675 7.889883 0.809991
v -0.965996 7.889883 1.682075
v -0.965996 7.889883 0.685265
v -1.464402 7.889883 1.183670
v -0.467591 7.889883 1.183670
v -0.965996 8.024606 1.183670
v -0.459357 7.595178 1.690309
v -1.472636 7.595178 1.690309
v -0.459357 7.595178 0.677031
v -1.472636 7.595178 0.677031
v -0.965996 7.595178 1.859416
v -0.965996 7.595178 0.507924
v -1.641742 7.595178 1.183670
v -0.290251 7.595178 1.183670
v 0.000000 -0.602514 -1.528651
v -0.000000 -0.228516 -0.634931
v 1.323851 -0.602514 -0.764326
v 0.549867 -0.228516 -0.317466
v 1.323851 -0.602514 0.764326
v 0.549867 -0.228516 0.317466
v -0.000000 -0.602514 1.528651
v -0.000000 -0.228516 0.634931
v -1.323851 -0.602514 0.764325
v -0.549867 -0.228516 0.317466
v -1.323851 -0.602514 -0.764325
v -0.549867 -0.228516 -0.317466
v -0.000000 4.921580 -0.264756
v 0.229286 4.921580 -0.132378
v 0.229286 4.921580 0.132378
v -0.000000 4.921580 0.264757
v -0.229286 4.921580 0.132378
v -0.229286 4.921580 -0.132378
v 0.026509 5.019566 -0.014119
v -1.281731 9.035413 3.454120
v -2.975129 9.035413 -1.891921
v 1.300608 4.125199 2.636145
v -0.392790 4.125199 -2.709896
v 0.443408 10.206647 0.411365
v 4.182974 7.063910 -2.343015
v -2.382492 5.581922 1.851492
v 1.357074 2.439184 -0.902887
vt 0.411450 0.293908
vt 0.696848 0.293908
vt 0.696848 0.579306
vt 0.411450 0.579306
vt 0.222838 0.309265
vt 0.145727 0.280260
vt 0.185907 0.227798
vt 0.251844 0.232154
vt 0.304306 0.272333
vt 0.299949 0.338270
vt 0.259770 0.390733
vt 0.193833 0.386376
vt 0.141371 0.346197
vt 0.078627 0.255020
vt 0.157463 0.165054
vt 0.288214 0.453476
vt 0.168593 0.453476
vt 0.078627 0.374641
vt 0.277083 0.165054
vt 0.367050 0.243890
vt 0.367050 0.363510
vt 0.387997 0.574320
vt 0.352554 0.623405
vt 0.304883 0.607601
vt 0.322936 0.546054
vt 0.250728 0.601844
vt 0.260895 0.535351
vt 0.194895 0.601445
vt 0.196456 0.531528
vt 0.138895 0.598803
vt 0.133279 0.533271
vt 0.284536 0.997965
vt 0.237940 0.996743
vt 0.068667 0.543151
vt 0.085173 0.608805
vt 0.036595 0.623993
vt 0.000000 0.572009
vt 0.191238 0.996363
vt 0.330958 1.000000
vt 0.144458 0.996857
vt 0.097819 0.998175
vt 0.048415 1.000000
vt 0.189686 0.998181
vn 0.834724 0.483038 -0.264405
vn 0.548980 -0.076258 0.832349
vn 0.000000 1.000000 0.000000
vn -0.695090 0.718894 0.000000
vn -0.512284 0.689261 0.512284
vn 0.000000 0.718894 0.695090
vn 0.512284 0.689261 0.512284
vn 0.695090 0.718894 0.000000
vn 0.512284 0.689261 -0.512284
vn 0.000000 0.718894 -0.695090
vn -0.512284 0.689261 -0.512284
vn -0.936766 0.349925 0.000000
vn -0.657399 0.368236 0.657399
vn 0.657399 0.368236 -0.657399
vn 0.000000 0.349925 -0.936766
vn -0.657399 0.368236 -0.657399
vn 0.000000 0.349925 0.936766
vn 0.657399 0.368236 0.657399
vn 0.936766 0.349925 0.000000
vn -0.725791 0.687887 0.000000
vn -0.537553 0.649617 0.537553
vn 0.000000 0.687887 0.725791
vn 0.725791 0.687887 0.000000
vn 0.537553 0.649617 0.537553
vn 0.537553 0.649617 -0.537553
vn 0.000000 0.687887 -0.725791
vn -0.537553 0.649617 -0.537553
vn -0.932401 0.361370 0.000000
vn -0.654012 0.380078 0.654012
vn 0.654012 0.380078 -0.654012
vn 0.000000 0.361370 -0.932401
vn -0.654012 0.380078 -0.654012
vn 0.000000 0.361370 0.932401
vn 0.654012 0.380078 0.654012
vn 0.932401 0.361370 0.000000
vn -0.684652 0.728843 0.000000
vn -0.509507 0.693350 0.509507
vn 0.000000 0.728843 0.684652
vn 0.684652 0.728843 0.000000
vn 0.509507 0.693350 0.509507
vn 0.509507 0.693350 -0.509507
vn 0.000000 0.728843 -0.684652
vn -0.509507 0.693350 -0.509507
vn -0.866817 0.498581 0.000000
vn -0.603687 0.520676 0.603687
vn 0.603687 0.520676 -0.603687
vn 0.000000 0.498581 -0.866817
vn -0.603687 0.520676 -0.603687
vn 0.000000 0.498581 0.866817
vn 0.603687 0.520676 0.603687
vn 0.866817 0.498581 0.000000
vn 0.104190 0.988769 -0.106937
vn -0.604968 0.792627 -0.075594
vn -0.427107 0.796014 0.428785
vn 0.078524 0.793847 0.603015
vn 0.739494 0.668935 -0.074862
vn 0.568377 0.704031 0.425703
vn 0.556688 0.611774 -0.561937
vn 0.068148 0.667776 -0.741203
vn -0.431104 0.702292 -0.566485
vn -0.882595 0.467788 -0.046693
vn -0.602466 0.519639 0.605762
vn 0.669240 0.310678 -0.674917
vn 0.039888 0.319498 -0.946715
vn -0.594836 0.411756 -0.690329
vn 0.052126 0.469222 0.881497
vn 0.693991 0.413739 0.589190
vn 0.945921 0.320872 -0.047548
vn -0.621082 0.783715 0.000000
vn -0.458937 0.760735 0.458937
vn 0.000000 0.783715 0.621082
vn 0.621082 0.783715 0.000000
vn 0.458937 0.760735 0.458937
vn 0.458937 0.760735 -0.458937
vn 0.000000 0.783715 -0.621082
vn -0.458937 0.760735 -0.458937
vn -0.856807 0.515580 0.000000
vn -0.596088 0.537858 0.596088
vn 0.596088 0.537858 -0.596088
vn 0.000000 0.515580 -0.856807
vn -0.596088 0.537858 -0.596088
vn 0.000000 0.515580 0.856807
vn 0.596088 0.537858 0.596088
vn 0.856807 0.515580 0.000000
vn 0.000000 0.922483 -0.386029
vn 0.000000 0.678945 -0.734153
vn 0.635792 0.678945 -0.367077
vn 0.334300 0.922483 -0.192999
vn 0.635792 0.678945 0.367077
vn 0.334300 0.922483 0.192999
vn 0.000000 0.678945 0.734153
vn 0.000000 0.922483 0.386029
vn -0.635792 0.678945 0.367077
vn -0.334300 0.922483 0.192999
vn 0.741905 0.515671 -0.428541
vn 0.736381 0.522538 0.429701
vn -0.334300 0.922483 -0.192999
vn -0.635792 0.678945 -0.367077
vn -0.003357 0.534532 0.845119
vn -0.004028 0.523362 -0.852077
vn -0.729057 0.539811 0.420759
vn -0.733146 0.535173 -0.419568
vn 0.039003 0.998993 -0.020783
usemtl tree_untitled
s off
f 124/1/1 125/2/1 123/3/1
f 124/1/1 123/3/1 122/4/1
f 128/1/2 129/2/2 127/3/2
f 128/1/2 127/3/2 126/4/2
s 1
f 9/5/3 7/6/4 2/7/5
f 9/5/3 2/7/5 5/8/6
f 5/8/6 1/9/7 8/10/8
f 5/8/6 8/10/8 9/5/3
f 3/11/9 6/12/10 9/5/3
f 3/11/9 9/5/3 8/10/8
f 6/12/10 4/13/11 7/6/4
f 6/12/10 7/6/4 9/5/3
f 16/14/12 11/15/13 2/7/5
f 16/14/12 2/7/5 7/6/4
f 6/12/10 3/11/9 12/16/14
f 6/12/10 12/16/14 15/17/15
f 15/17/15 13/18/16 4/13/11
f 15/17/15 4/13/11 6/12/10
f 1/9/7 5/8/6 14/19/17
f 1/9/7 14/19/17 10/20/18
f 8/10/8 1/9/7 10/20/18
f 8/10/8 10/20/18 17/21/19
f 5/8/6 2/7/5 11/15/13
f 5/8/6 11/15/13 14/19/17
f 17/21/19 12/16/14 3/11/9
f 17/21/19 3/11/9 8/10/8
f 7/6/4 4/13/11 13/18/16
f 7/6/4 13/18/16 16/14/12
f 26/5/3 24/6/20 19/7/21
f 26/5/3 19/7/21 22/8/22
f 25/10/23 26/5/3 22/8/22
f 25/10/23 22/8/22 18/9/24
f 20/11/25 23/12/26 26/5/3
f 20/11/25 26/5/3 25/10/23
f 23/12/26 21/13/27 24/6/20
f 23/12/26 24/6/20 26/5/3
f 33/14/28 28/15/29 19/7/21
f 33/14/28 19/7/21 24/6/20
f 23/12/26 20/11/25 29/16/30
f 23/12/26 29/16/30 32/17/31
f 32/17/31 30/18/32 21/13/27
f 32/17/31 21/13/27 23/12/26
f 31/19/33 27/20/34 18/9/24
f 31/19/33 18/9/24 22/8/22
f 25/10/23 18/9/24 27/20/34
f 25/10/23 27/20/34 34/21/35
f 22/8/22 19/7/21 28/15/29
f 22/8/22 28/15/29 31/19/33
f 34/21/35 29/16/30 20/11/25
f 34/21/35 20/11/25 25/10/23
f 24/6/20 21/13/27 30/18/32
f 24/6/20 30/18/32 33/14/28
f 43/5/3 41/6/36 36/7/37
f 43/5/3 36/7/37 39/8/38
f 42/10/39 43/5/3 39/8/38
f 42/10/39 39/8/38 35/9/40
f 37/11/41 40/12/42 43/5/3
f 37/11/41 43/5/3 42/10/39
f 40/12/42 38/13/43 41/6/36
f 40/12/42 41/6/36 43/5/3
f 50/14/44 45/15/45 36/7/37
f 50/14/44 36/7/37 41/6/36
f 40/12/42 37/11/41 46/16/46
f 40/12/42 46/16/46 49/17/47
f 49/17/47 47/18/48 38/13/43
f 49/17/47 38/13/43 40/12/42
f 48/19/49 44/20/50 35/9/40
f 48/19/49 35/9/40 39/8/38
f 42/10/39 35/9/40 44/20/50
f 42/10/39 44/20/50 51/21/51
f 39/8/38 36/7/37 45/15/45
f 39/8/38 45/15/45 48/19/49
f 51/21/51 46/16/46 37/11/41
f 51/21/51 37/11/41 42/10/39
f 41/6/36 38/13/43 47/18/48
f 41/6/36 47/18/48 50/14/44
f 60/5/52 58/6/53 53/7/54
f 60/5/52 53/7/54 56/8/55
f 59/10/56 60/5/52 56/8/55
f 59/10/56 56/8/55 52/9/57
f 54/11/58 57/12/59 60/5/52
f 54/11/58 60/5/52 59/10/56
f 57/12/59 55/13/60 58/6/53
f 57/12/59 58/6/53 60/5/52
f 67/14/61 62/15/62 53/7/54
f 67/14/61 53/7/54 58/6/53
f 57/12/59 54/11/58 63/16/63
f 57/12/59 63/16/63 66/17/64
f 66/17/64 64/18/65 55/13/60
f 66/17/64 55/13/60 57/12/59
f 65/19/66 61/20/67 52/9/57
f 65/19/66 52/9/57 56/8/55
f 59/10/56 52/9/57 61/20/67
f 59/10/56 61/20/67 68/21/68
f 56/8/55 53/7/54 62/15/62
f 56/8/55 62/15/62 65/19/66
f 68/21/68 63/16/63 54/11/58
f 68/21/68 54/11/58 59/10/56
f 58/6/53 55/13/60 64/18/65
f 58/6/53 64/18/65 67/14/61
f 77/5/3 75/6/69 70/7/70
f 77/5/3 70/7/70 73/8/71
f 76/10/72 77/5/3 73/8/71
f 76/10/72 73/8/71 69/9/73
f 71/11/74 74/12/75 77/5/3
f 71/11/74 77/5/3 76/10/72
f 74/12/75 72/13/76 75/6/69
f 74/12/75 75/6/69 77/5/3
f 84/14/77 79/15/78 70/7/70
f 84/14/77 70/7/70 75/6/69
f 74/12/75 71/11/74 80/16/79
f 74/12/75 80/16/79 83/17/80
f 83/17/80 81/18/81 72/13/76
f 83/17/80 72/13/76 74/12/75
f 82/19/82 78/20/83 69/9/73
f 82/19/82 69/9/73 73/8/71
f 76/10/72 69/9/73 78/20/83
f 76/10/72 78/20/83 85/21/84
f 73/8/71 70/7/70 79/15/78
f 73/8/71 79/15/78 82/19/82
f 85/21/84 80/16/79 71/11/74
f 85/21/84 71/11/74 76/10/72
f 75/6/69 72/13/76 81/18/81
f 75/6/69 81/18/81 84/14/77
f 94/5/3 92/6/69 87/7/70
f 94/5/3 87/7/70 90/8/71
f 93/10/72 94/5/3 90/8/71
f 93/10/72 90/8/71 86/9/73
f 88/11/74 91/12/75 94/5/3
f 88/11/74 94/5/3 93/10/72
f 91/12/75 89/13/76 92/6/69
f 91/12/75 92/6/69 94/5/3
f 101/14/77 96/15/78 87/7/70
f 101/14/77 87/7/70 92/6/69
f 91/12/75 88/11/74 97/16/79
f 91/12/75 97/16/79 100/17/80
f 100/17/80 98/18/81 89/13/76
f 100/17/80 89/13/76 91/12/75
f 99/19/82 95/20/83 86/9/73
f 99/19/82 86/9/73 90/8/71
f 93/10/72 86/9/73 95/20/83
f 93/10/72 95/20/83 102/21/84
f 90/8/71 87/7/70 96/15/78
f 90/8/71 96/15/78 99/19/82
f 102/21/84 97/16/79 88/11/74
f 102/21/84 88/11/74 93/10/72
f 92/6/69 89/13/76 98/18/81
f 92/6/69 98/18/81 101/14/77
f 103/22/85 104/23/86 106/24/87
f 103/22/85 106/24/87 105/25/88
f 105/25/88 106/24/87 108/26/89
f 105/25/88 108/26/89 107/27/90
f 107/27/90 108/26/89 110/28/91
f 107/27/90 110/28/91 109/29/92
f 109/29/92 110/28/91 112/30/93
f 109/29/92 112/30/93 111/31/94
f 108/26/89 106/24/87 116/32/95
f 108/26/89 116/32/95 117/33/96
f 113/34/97 114/35/98 104/36/86
f 113/34/97 104/36/86 103/37/85
f 111/31/94 112/30/93 114/35/98
f 111/31/94 114/35/98 113/34/97
f 110/28/91 108/26/89 117/33/96
f 110/28/91 117/33/96 118/38/99
f 106/24/87 104/23/86 115/39/100
f 106/24/87 115/39/100 116/32/95
f 112/30/93 110/28/91 118/38/99
f 112/30/93 118/38/99 119/40/101
f 114/35/98 112/30/93 119/40/101
f 114/35/98 119/40/101 120/41/102
f 104/36/86 114/35/98 120/41/102
f 104/36/86 120/41/102 115/42/100
f 117/33/96 116/32/95 121/43/103
f 120/41/102 119/40/101 121/43/103
f 116/32/95 115/39/100 121/43/103
f 119/40/101 118/38/99 121/43/103
f 118/38/99 117/33/96 121/43/103
f 115/42/100 120/41/102 121/43/103
