# Blender v2.65 (sub 0) OBJ File: 'map20130224.blend'
# www.blender.org
mtllib tree_mm2.mtl
o treet1.021_Group27971
v -1.432212 0.175748 2.568382
v -1.536161 0.117769 2.592118
v -1.547785 0.097585 2.704229
v -1.506509 0.216900 2.673511
v -1.462832 0.131626 2.763317
v -1.377852 0.189396 2.675522
v -1.396132 0.138951 2.705555
v -1.419562 0.189598 2.748903
v -1.408659 0.189432 2.748445
v -1.384041 0.139477 2.706160
v -1.399336 0.113980 2.659852
v -1.399619 0.127822 2.709785
v -1.396770 0.127431 2.656471
v -1.411261 0.173272 2.754875
v -1.422381 0.179425 2.753008
v -1.385919 0.121149 2.713387
v -1.383180 0.128712 2.656724
v -1.377769 0.130008 2.710382
v -1.375368 0.117962 2.659850
v -1.393640 0.204468 2.811488
v -1.403197 0.180543 2.751651
v -1.384355 0.107352 2.662217
v -1.374092 0.147159 2.645031
v -1.330065 0.145607 2.662925
v -1.324330 0.138437 2.675653
v -1.371956 0.135473 2.663580
v -1.302361 0.178341 2.652449
v -1.261368 0.189889 2.626586
v -1.295501 0.177128 2.663635
v -1.369112 0.157312 2.663933
v -1.326303 0.157915 2.677839
v -1.330413 0.157383 2.666528
v -1.371484 0.157823 2.651450
v -1.369348 0.146137 2.669998
v -1.322790 0.147851 2.683450
v -1.301080 0.193249 2.661041
v -1.305156 0.188925 2.652226
v -1.295570 0.187231 2.667857
v -1.413418 0.162786 2.580370
v -1.458748 0.205274 2.546507
v -1.406350 0.170370 2.580313
v -1.402655 0.167653 2.630075
v -1.410093 0.178356 2.585372
v -1.419400 0.177891 2.589437
v -1.412256 0.168317 2.635974
v -1.363462 0.175255 2.653110
v -1.400101 0.158177 2.624499
v -1.366376 0.186610 2.658038
v -1.372828 0.166921 2.656633
v -1.409295 0.151157 2.626851
v -1.376941 0.188008 2.664978
v -1.417153 0.157712 2.634269
v -1.382875 0.176428 2.665480
v -1.423462 0.168574 2.587393
v -1.365600 0.201125 2.590585
v -1.381163 0.159580 2.512248
v -1.467632 0.128494 2.497173
v -1.458328 0.213345 2.544030
v -1.532752 0.171509 2.583774
v -1.462224 0.211638 2.638402
v -1.333573 0.257618 2.688534
v -1.345017 0.258083 2.614730
v -1.404816 0.290596 2.661458
v -1.436184 0.253347 2.733362
v -1.440418 0.259743 2.604026
v -1.475677 0.254173 2.684935
v -1.470263 0.218625 2.562898
v -1.525008 0.204219 2.699829
v -1.289220 0.203948 2.705381
v -1.307941 0.213006 2.581733
v -1.459505 0.196287 2.778605
v -1.382576 0.116704 2.837355
v -1.286191 0.158028 2.768409
v -1.395155 0.206343 2.809062
v -1.484005 0.143378 2.800360
v -1.463486 0.214754 2.703319
v -1.348894 0.215426 2.688099
v -1.302979 0.137792 2.718444
v -1.290874 0.185489 2.631507
v -1.327038 0.238797 2.716647
v -1.376402 0.161486 2.770531
v -1.437286 0.253843 2.709483
v -1.383749 0.267283 2.624775
v -1.244991 0.099970 2.608170
v -1.347256 0.161390 2.521260
v -1.254957 0.196739 2.623631
v -1.263611 0.120881 2.734167
v -1.334614 0.200233 2.730973
v -1.384238 0.226388 2.596207
v -1.397035 0.063157 2.672399
v -1.399189 -0.000226 2.685467
v -1.382923 -0.001010 2.666418
v -1.421000 0.067509 2.662895
v -1.420817 0.066868 2.642765
v -1.429722 0.000783 2.648216
v -1.430544 0.000975 2.673313
v -1.366297 0.182582 2.671481
v -1.382842 0.180821 2.665022
v -1.395118 0.127680 2.658364
v -1.375590 0.124593 2.666067
v -1.396747 0.061982 2.635169
v -1.399185 -0.000522 2.638760
v -1.396067 0.127336 2.639092
v -1.374084 0.123460 2.632474
v -1.365999 0.183066 2.645928
v -1.383306 0.235180 2.654720
v -1.382714 0.181081 2.651087
v -1.383455 0.234938 2.667497
v -1.391727 0.234057 2.664267
v -1.391663 0.234187 2.657299
v -1.507052 0.198380 2.562995
v -1.406111 0.217615 2.569139
v -1.467598 0.172318 2.510525
v -1.415209 0.191152 2.519659
v -1.462803 0.223784 2.597194
v -1.300679 0.180293 2.559663
v -1.250809 0.156141 2.686602
v -1.292587 0.203159 2.686205
v -1.239707 0.143673 2.611480
v -1.323284 0.219338 2.602840
v -1.337030 0.186490 2.799583
v -1.436471 0.218708 2.765102
v -1.388265 0.160713 2.838046
v -1.449410 0.177063 2.816830
v -1.372561 0.220064 2.756328
v -1.484385 0.173162 2.738284
v -1.462976 0.204011 2.601990
v -1.543782 0.149362 2.696971
v -1.535655 0.163474 2.618585
v -1.424968 0.213554 2.676900
vt 0.297925 0.382150
vt 0.383305 0.427610
vt 0.375200 0.343870
vt 0.456125 0.370570
vt 0.537050 0.397270
vt 0.450240 0.189010
vt 0.412720 0.266440
vt 0.561200 0.040130
vt 0.565000 0.057370
vt 0.656660 0.019840
vt 0.656350 0.003040
vt 0.586880 0.105720
vt 0.528020 0.140660
vt 0.538280 0.157960
vt 0.597060 0.120190
vt 0.517420 0.123240
vt 0.575700 0.093770
vt 0.568150 0.078500
vt 0.667280 0.053210
vt 0.658540 0.037780
vt 0.678450 0.064150
vt 0.688410 0.076460
vt 0.751530 0.006260
vt 0.507800 0.103420
vt 0.500120 0.079480
vt 0.236740 0.263760
vt 0.245060 0.231430
vt 0.175830 0.242200
vt 0.173520 0.261330
vt 0.494260 0.058940
vt 0.230580 0.321370
vt 0.226680 0.303020
vt 0.162920 0.289120
vt 0.167190 0.305250
vt 0.166010 0.275440
vt 0.109340 0.260560
vt 0.102870 0.275400
vt 0.037680 0.237030
vt 0.110940 0.240210
vt 0.106450 0.225200
vt 0.229750 0.282940
vt 0.235410 0.215280
vt 0.168380 0.226300
vt 0.099640 0.304690
vt 0.094640 0.289230
vt 0.080110 0.296350
vt 0.265510 0.207550
vt 0.376520 0.192530
vt 0.373620 0.179330
vt 0.364990 0.152510
vt 0.352420 0.137930
vt 0.370700 0.165620
vt 0.436590 0.129370
vt 0.428900 0.115390
vt 0.422170 0.098580
vt 0.415570 0.084450
vt 0.341950 0.126450
vt 0.445030 0.144940
vt 0.502840 0.104370
vt 0.491090 0.089500
vt 0.452210 0.159580
vt 0.479960 0.066970
vt 0.513160 0.138340
vt 0.511330 0.120480
vt 0.477930 0.047710
vt 0.766910 0.583620
vt 0.681890 0.598300
vt 0.690700 0.624830
vt 0.773310 0.603660
vt 0.327960 0.729335
vt 0.389200 0.657690
vt 0.324950 0.652240
vt 0.328545 0.568335
vt 0.332140 0.484430
vt 0.201670 0.514270
vt 0.263310 0.583255
vt 0.614030 0.271070
vt 0.658120 0.405620
vt 0.757570 0.296960
vt 0.848800 0.389520
vt 0.881240 0.218790
vt 0.789290 0.147050
vt 0.944180 0.475180
vt 0.998040 0.144220
vt 0.480210 0.236580
vt 0.583990 0.510990
vt 0.800950 0.001950
vt 0.500175 0.932545
vt 0.518690 0.848170
vt 0.453440 0.886740
vt 0.399095 0.942390
vt 0.444970 0.808900
vt 0.379765 0.859415
vt 0.993510 0.732390
vt 0.905800 0.593720
vt 0.850500 0.732190
vt 0.916650 0.865100
vt 0.719330 0.817710
vt 0.715340 0.653100
vt 0.159505 0.801480
vt 0.082255 0.857150
vt 0.160490 0.855310
vt 0.219705 0.908900
vt 0.232550 0.844725
vt 0.106835 0.916400
vt 0.589500 0.616690
vt 0.595460 0.644430
vt 0.849290 0.577760
vt 0.846090 0.567740
vt 0.783500 0.627940
vt 0.854380 0.589900
vt 0.584590 0.580050
vt 0.678280 0.566180
vt 0.519670 0.671280
vt 0.513190 0.634290
vt 0.763440 0.557590
vt 0.702600 0.653530
vt 0.608750 0.679170
vt 0.508920 0.585780
vt 0.844350 0.554730
vt 0.258440 0.703990
vt 0.312090 0.281330
vt 0.549560 0.707910
vt 0.847040 0.531880
vt 0.768810 0.511910
vt 0.677450 0.505530
vt 0.579950 0.513420
vt 0.519090 0.507150
vt 0.508900 0.538760
vt 0.330970 0.806430
vt 0.453450 0.663140
vt 0.191930 0.755740
vt 0.158520 0.747650
vt 0.004020 0.858990
vt 0.278920 0.962490
vt 0.304610 0.834140
vt 0.053180 0.977490
vt 0.546910 0.978350
vt 0.583940 0.809600
vt 0.344750 0.998040
vt 0.436500 0.731060
vt 0.306090 0.832090
vt 0.220650 0.420430
vt 0.391410 0.511350
vt 0.248980 0.218790
vn -0.801721 0.435987 -0.408765
vn -0.884671 0.290231 0.364788
vn -0.450636 0.881741 0.139317
vn -0.225654 0.562151 0.795648
vn -0.173894 0.440535 0.880703
vn 0.450056 0.865200 0.220954
vn 0.302469 0.924284 0.232704
vn -0.617084 0.593005 -0.517228
vn -0.852290 -0.495621 0.167089
vn -0.961821 -0.225349 0.155248
vn -0.633686 0.680319 -0.368145
vn 0.562456 0.770623 -0.299509
vn 0.434187 0.881649 -0.184759
vn -0.651540 0.739433 -0.169347
vn 0.997742 -0.039186 0.054415
vn 0.953185 -0.060091 0.296335
vn 0.197638 -0.812616 0.548235
vn 0.990661 0.031922 0.132450
vn 0.006897 -0.754143 0.656636
vn 0.388256 0.790277 -0.474013
vn 0.287423 0.332926 0.898068
vn 0.194372 -0.944639 0.264229
vn -0.906217 -0.407941 0.110965
vn 0.054506 -0.998444 -0.011139
vn 0.341807 -0.270058 -0.900113
vn 0.310678 -0.455763 -0.834101
vn 0.390179 -0.882839 0.261422
vn 0.267159 0.687704 -0.675039
vn -0.134159 0.899258 0.416272
vn -0.367595 0.661702 0.653432
vn -0.338908 0.754479 -0.562029
vn 0.211188 -0.122135 0.969756
vn 0.745781 -0.636006 0.198157
vn 0.443770 0.351177 0.824427
vn 0.760399 0.104831 -0.640919
vn -0.123356 -0.515641 -0.847865
vn -0.645283 0.563494 -0.515793
vn -0.264870 -0.107334 0.958281
vn -0.216865 0.922941 0.317942
vn -0.650044 0.502914 -0.569597
vn -0.384930 0.783837 0.487228
vn 0.624958 0.780175 -0.027223
vn 0.048036 -0.851741 -0.521744
vn -0.895871 -0.420881 0.142308
vn 0.837581 -0.093020 -0.538285
vn 0.847224 -0.359081 -0.391400
vn -0.034913 -0.999023 0.026856
vn -0.798791 -0.384564 0.462600
vn -0.627338 0.717521 0.302591
vn 0.326762 0.876766 -0.352763
vn 0.568438 0.105472 -0.815912
vn 0.312998 -0.940611 0.131382
vn -0.616260 -0.140904 0.774804
vn -0.432112 0.897305 -0.089908
vn 0.093204 0.767907 -0.633686
vn -0.779992 0.138524 -0.610248
vn -0.728874 0.283212 -0.623310
vn -0.788415 0.248299 0.562761
vn -0.786676 -0.009400 0.617267
vn 0.222053 0.631214 -0.743095
vn -0.358074 0.402142 -0.842616
vn -0.175512 0.853114 -0.491287
vn -0.681143 0.658467 -0.320078
vn -0.787713 0.569353 -0.235206
vn -0.197577 0.939879 0.278512
vn -0.204535 0.972533 0.110874
vn 0.532853 0.767785 0.355663
vn 0.420515 0.807062 -0.414472
vn -0.014771 0.999786 0.012970
vn -0.292489 0.818140 -0.495041
vn -0.595416 0.794153 0.121372
vn -0.109561 0.756584 0.644642
vn -0.374401 0.757744 -0.534440
vn -0.666372 0.718101 0.200537
vn 0.633198 0.665792 0.394604
vn 0.519211 0.731590 -0.441786
vn -0.187719 0.670827 0.717429
vn 0.098758 0.213324 0.971954
vn 0.560259 0.566790 0.603992
vn 0.042543 0.786096 0.616627
vn -0.511032 0.424085 0.747612
vn 0.252724 0.956969 0.142491
vn -0.366405 0.898679 0.240944
vn 0.817591 0.204321 0.538255
vn 0.715140 0.620289 0.322153
vn 0.556322 0.675588 0.483810
vn 0.494919 0.421064 0.760063
vn 0.279275 0.853999 0.438887
vn 0.429456 0.902951 0.014863
vn 0.941984 0.078524 -0.326273
vn 0.511979 0.462478 -0.723838
vn 0.727256 0.671133 -0.143620
vn 0.435835 0.830653 0.346416
vn 0.889462 0.290384 0.352824
vn 0.226814 0.942747 -0.244362
vn -0.795160 0.175542 -0.580370
vn -0.806787 0.279794 0.520341
vn -0.129185 -0.280862 0.950987
vn -0.150914 -0.187597 -0.970550
vn 0.553728 -0.073214 0.829432
vn 0.555223 -0.080081 0.827815
vn 0.491379 -0.025239 -0.870571
vn 0.603381 0.101382 -0.790948
vn -0.797449 0.203894 0.567827
vn -0.821436 0.064730 -0.566546
vn 0.602344 0.101321 -0.791772
vn 0.533097 0.036042 0.845271
vn 0.451064 0.155553 0.878811
vn 0.608509 -0.073733 -0.790094
vn 0.600085 0.012909 -0.799829
vn 0.314310 0.932463 -0.178045
vn -0.095614 0.837550 -0.537889
vn 0.541185 0.135319 0.829920
vn 0.998718 -0.045595 0.021638
vn 0.338359 0.547197 -0.765526
vn -0.324412 0.275918 -0.904752
vn 0.444472 0.881832 -0.157384
vn 0.938932 -0.088321 -0.332530
vn 0.388806 0.537645 -0.748131
vn 0.384625 0.828425 0.407056
vn 0.825678 0.316965 0.466597
vn 0.145329 0.952910 -0.266152
vn 0.146062 0.006378 0.989227
vn 0.643178 0.607532 0.466048
vn -0.666311 0.366924 0.649129
vn 0.287881 0.956572 0.045686
vn -0.351299 0.931852 0.090487
vn -0.813196 0.298349 -0.499649
vn -0.908872 0.125980 0.397534
vn -0.003235 0.763848 -0.645375
usemtl tree.t01
s 1
f 129/1/1 128/2/2 4/3/3
f 128/2/2 126/4/4 4/3/3
f 126/4/4 5/5/5 6/6/6
f 126/4/4 6/6/6 130/7/7
f 7/8/8 12/9/9 15/10/10
f 7/8/8 15/10/10 8/11/11
f 10/12/12 17/13/13 13/14/14
f 10/12/12 13/14/14 7/15/8
f 19/16/15 17/13/13 10/12/12
f 19/16/15 10/12/12 18/17/16
f 16/18/17 18/17/16 21/19/18
f 16/18/17 21/19/18 14/20/19
f 18/17/16 10/12/12 9/21/20
f 18/17/16 9/21/20 21/19/18
f 16/18/17 14/20/19 15/10/10
f 16/18/17 15/10/10 12/9/9
f 9/21/20 10/12/12 7/15/8
f 9/21/20 7/15/8 8/22/11
f 20/23/21 8/11/11 15/10/10
f 22/24/22 16/18/17 12/9/9
f 22/24/22 12/9/9 11/25/23
f 20/23/21 9/21/20 8/22/11
f 20/23/21 21/19/18 9/21/20
f 26/26/24 23/27/25 24/28/26
f 26/26/24 24/28/26 25/29/27
f 7/8/8 13/30/14 11/25/23
f 7/8/8 11/25/23 12/9/9
f 20/23/21 14/20/19 21/19/18
f 33/31/28 30/32/29 31/33/30
f 33/31/28 31/33/30 32/34/31
f 20/23/21 15/10/10 14/20/19
f 35/35/32 25/29/27 29/36/33
f 35/35/32 29/36/33 38/37/34
f 28/38/35 27/39/36 37/40/37
f 31/33/30 30/32/29 34/41/38
f 31/33/30 34/41/38 35/35/32
f 29/36/33 25/29/27 24/28/26
f 29/36/33 24/28/26 27/39/36
f 23/27/25 33/42/28 32/43/31
f 23/27/25 32/43/31 24/28/26
f 37/44/37 32/34/31 31/33/30
f 37/44/37 31/33/30 36/45/39
f 28/38/35 36/45/39 38/37/34
f 31/33/30 35/35/32 38/37/34
f 31/33/30 38/37/34 36/45/39
f 28/38/35 37/46/37 36/45/39
f 40/47/40 44/48/41 43/49/42
f 29/36/33 27/39/36 28/38/35
f 27/39/36 24/28/26 32/43/31
f 27/39/36 32/43/31 37/40/37
f 28/38/35 38/37/34 29/36/33
f 35/35/32 34/41/38 26/26/24
f 35/35/32 26/26/24 25/29/27
f 40/47/40 39/50/43 54/51/44
f 41/52/45 47/53/46 50/54/47
f 41/52/45 50/54/47 39/50/43
f 54/51/44 52/55/48 45/56/49
f 54/51/44 45/56/49 44/57/41
f 42/58/50 47/53/46 41/52/45
f 42/58/50 41/52/45 43/49/42
f 47/53/46 46/59/51 49/60/52
f 47/53/46 49/60/52 50/54/47
f 40/47/40 54/51/44 44/57/41
f 50/54/47 52/55/48 54/51/44
f 50/54/47 54/51/44 39/50/43
f 44/48/41 45/61/49 42/58/50
f 44/48/41 42/58/50 43/49/42
f 50/54/47 49/60/52 53/62/53
f 50/54/47 53/62/53 52/55/48
f 45/61/49 51/63/54 48/64/55
f 45/61/49 48/64/55 42/58/50
f 41/52/45 39/50/43 40/47/40
f 42/58/50 48/64/55 46/59/51
f 42/58/50 46/59/51 47/53/46
f 53/62/53 51/65/54 45/56/49
f 53/62/53 45/56/49 52/55/48
f 107/66/56 103/67/57 99/68/58
f 107/66/56 99/68/58 98/69/59
f 40/47/40 43/49/42 41/52/45
f 114/70/60 113/71/61 58/72/62
f 113/71/61 111/73/63 58/72/62
f 111/73/63 59/74/64 60/75/65
f 111/73/63 60/75/65 115/76/66
f 61/77/67 62/78/68 63/79/69
f 65/80/70 66/81/71 63/79/69
f 66/81/71 64/82/72 63/79/69
f 66/81/71 65/80/70 67/83/73
f 66/81/71 67/83/73 68/84/74
f 62/78/68 61/77/67 69/85/75
f 62/78/68 69/85/75 70/86/76
f 61/77/67 64/82/72 71/87/77
f 61/77/67 71/87/77 69/85/75
f 65/80/70 62/78/68 70/86/76
f 65/80/70 70/86/76 67/83/73
f 64/82/72 66/81/71 68/84/74
f 64/82/72 68/84/74 71/87/77
f 123/88/78 121/89/79 74/90/80
f 124/91/81 123/88/78 74/90/80
f 125/92/82 122/93/83 74/90/80
f 78/94/84 79/95/85 80/96/86
f 78/94/84 80/96/86 81/97/87
f 82/98/88 81/97/87 80/96/86
f 79/95/85 83/99/89 82/98/88
f 79/95/85 82/98/88 80/96/86
f 119/100/90 116/101/91 86/102/92
f 118/103/93 117/104/94 86/102/92
f 120/105/95 118/103/93 86/102/92
f 94/106/96 93/107/97 99/68/58
f 94/106/96 99/68/58 103/67/57
f 107/66/56 98/69/59 109/108/98
f 107/66/56 109/108/98 110/109/99
f 98/69/59 97/110/100 108/111/101
f 98/69/59 108/111/101 109/108/98
f 101/112/102 94/106/96 103/67/57
f 101/112/102 103/67/57 104/113/103
f 96/114/104 93/107/97 94/106/96
f 96/114/104 94/106/96 95/115/105
f 105/116/106 104/113/103 103/67/57
f 105/116/106 103/67/57 107/66/56
f 100/117/107 97/110/100 98/69/59
f 100/117/107 98/69/59 99/68/58
f 90/118/108 100/117/107 99/68/58
f 90/118/108 99/68/58 93/107/97
f 101/112/102 102/119/109 95/115/105
f 101/112/102 95/115/105 94/106/96
f 105/116/106 107/66/56 110/109/99
f 105/116/106 110/109/99 106/120/110
f 64/82/72 61/77/67 63/79/69
f 62/78/68 65/80/70 63/79/69
f 112/121/111 114/70/60 58/72/62
f 112/121/111 58/72/62 115/76/66
f 122/93/83 124/91/81 74/90/80
f 121/89/79 125/92/82 74/90/80
f 117/104/94 119/100/90 86/102/92
f 116/101/91 120/105/95 86/102/92
f 127/122/112 129/1/1 4/3/3
f 127/122/112 4/3/3 130/7/7
f 91/123/113 90/118/108 93/107/97
f 91/123/113 93/107/97 96/114/104
f 22/24/22 19/16/15 18/17/16
f 22/24/22 18/17/16 16/18/17
f 105/116/106 106/120/110 110/109/99
f 109/108/98 108/124/101 97/125/100
f 105/116/106 110/109/99 109/108/98
f 105/116/106 109/108/98 97/125/100
f 104/113/103 105/116/106 97/125/100
f 104/113/103 97/125/100 100/126/107
f 104/113/103 100/126/107 90/127/108
f 101/112/102 104/113/103 90/127/108
f 101/112/102 90/127/108 91/128/113
f 101/112/102 91/128/113 102/119/109
f 91/128/113 92/129/114 102/119/109
f 56/130/115 57/131/116 113/71/61
f 56/130/115 113/71/61 114/70/60
f 57/131/116 59/74/64 111/73/63
f 57/131/116 111/73/63 113/71/61
f 58/72/62 111/73/63 115/76/66
f 55/132/117 56/130/115 114/70/60
f 55/132/117 114/70/60 112/121/111
f 55/132/117 112/121/111 115/76/66
f 55/132/117 115/76/66 60/75/65
f 84/133/118 85/134/119 116/101/91
f 84/133/118 116/101/91 119/100/90
f 88/135/120 87/136/121 117/104/94
f 88/135/120 117/104/94 118/103/93
f 89/137/122 88/135/120 118/103/93
f 89/137/122 118/103/93 120/105/95
f 87/136/121 84/133/118 119/100/90
f 87/136/121 119/100/90 117/104/94
f 85/134/119 89/137/122 120/105/95
f 85/134/119 120/105/95 116/101/91
f 72/138/123 73/139/124 121/89/79
f 72/138/123 121/89/79 123/88/78
f 75/140/125 72/138/123 123/88/78
f 75/140/125 123/88/78 124/91/81
f 77/141/126 76/142/127 122/93/83
f 77/141/126 122/93/83 125/92/82
f 76/142/127 75/140/125 124/91/81
f 76/142/127 124/91/81 122/93/83
f 73/139/124 77/141/126 125/92/82
f 73/139/124 125/92/82 121/89/79
f 2/143/128 3/144/129 128/2/2
f 2/143/128 128/2/2 129/1/1
f 3/144/129 5/5/5 126/4/4
f 3/144/129 126/4/4 128/2/2
f 4/3/3 126/4/4 130/7/7
f 1/145/130 2/143/128 129/1/1
f 1/145/130 129/1/1 127/122/112
f 1/145/130 127/122/112 130/7/7
f 1/145/130 130/7/7 6/6/6
